<svg width="53" height="57" viewBox="0 0 53 57" fill="none" xmlns="http://www.w3.org/2000/svg">
<g filter="url(#filter0_d_5003_156)">
<path d="M48.0225 29.0791C47.5742 28.3691 46.8916 27.8984 46.1016 27.7539L37.2861 26.1357C37.3291 24.3184 36.8906 22.4678 35.917 20.7812C35.4688 20.0049 34.9248 19.2959 34.2988 18.667C35.1016 17.4111 35.7051 15.8643 35.6553 13.6855C35.6514 8.93359 31.7852 5.06934 27.0322 5.06934C22.2793 5.06934 18.4131 8.93359 18.4092 13.6855C18.3594 15.8643 18.9619 17.4111 19.7656 18.667C18.2598 20.1777 17.25 22.1475 16.9043 24.2695C16.5264 26.5928 16.9678 28.998 18.1475 31.04C19.5176 33.4131 21.7305 35.1113 24.377 35.8203C25.2607 36.0576 26.1582 36.1738 27.0488 36.1738C28.8262 36.1738 30.5811 35.708 32.1621 34.7949C33.8105 33.8428 35.0947 32.499 35.9658 30.9492L44.4385 33.9658C44.7441 34.0752 45.0615 34.1289 45.3799 34.1289C45.8496 34.1289 46.3223 34.0117 46.7647 33.7783C47.5811 33.3496 48.1856 32.5938 48.4238 31.7041C48.6602 30.8154 48.5147 29.8584 48.0225 29.0791ZM19.5791 13.7061C19.5791 13.7012 19.5791 13.6973 19.5791 13.6924C19.5791 9.58399 22.9219 6.24121 27.0303 6.24121C31.1387 6.24121 34.4814 9.58399 34.4814 13.6924V13.7061C34.5527 16.7607 33.167 18.3789 31.8262 19.9434C30.9229 20.998 30.0654 22.001 29.7285 23.3438H29.3545V21.7988C29.3545 21.4756 29.0918 21.2129 28.7686 21.2129H28.3936L29.0166 18.3594C29.2891 18.5283 29.6094 18.627 29.9531 18.627C30.9404 18.627 31.7432 17.8242 31.7432 16.8369C31.7432 15.8496 30.9404 15.0469 29.9531 15.0469C28.9941 15.0469 28.2109 15.8057 28.167 16.7549L27.1934 21.2129H26.8613L25.8916 16.7754C25.8486 15.8262 25.0654 15.0664 24.1055 15.0664C23.1182 15.0664 22.3154 15.8691 22.3154 16.8564C22.3154 17.8438 23.1182 18.6465 24.1055 18.6465C24.4492 18.6465 24.7695 18.5479 25.042 18.3789L25.6611 21.2129H25.29C24.9668 21.2129 24.7041 21.4756 24.7041 21.7988V23.3438H24.3301C23.9941 22.001 23.1357 20.998 22.2324 19.9434C20.8945 18.3789 19.5078 16.7607 19.5791 13.7061ZM32.4697 22.7705C34.2012 25.7695 33.1699 29.6191 30.1709 31.3506C29.1846 31.9199 28.1064 32.1904 27.041 32.1904C24.8691 32.1904 22.7529 31.0635 21.5908 29.0508C20.2402 26.7109 20.5332 23.8262 22.2607 21.8213C22.7647 22.4922 23.1436 23.1709 23.2656 23.9785V27.8916C23.2656 28.0537 23.3311 28.2002 23.4385 28.3066L24.7627 29.626C25.1963 30.0586 25.7148 30.2773 26.3037 30.2773H27.7559C28.3447 30.2773 28.8633 30.0586 29.2979 29.626L30.6221 28.3066C30.7285 28.2002 30.7949 28.0537 30.7949 27.8916V23.9785C30.917 23.1709 31.2959 22.4932 31.7998 21.8223C32.0508 22.1152 32.2754 22.4326 32.4697 22.7705ZM25.8779 22.3848H28.1826V23.3438H25.8779V22.3848ZM29.623 24.5156V25.3252H24.4385V24.5156H29.623ZM24.4385 26.4961H29.623V27.3057H24.4385V26.4961ZM28.791 28.4775L28.4717 28.7959C28.2598 29.0068 28.0322 29.1055 27.7578 29.1055H26.3057C26.0303 29.1055 25.8037 29.0068 25.5918 28.7959L25.2725 28.4775H28.791ZM29.3359 16.8369C29.3359 16.4961 29.6133 16.2188 29.9541 16.2188C30.2949 16.2188 30.5723 16.4961 30.5723 16.8369C30.5723 17.1777 30.2949 17.4551 29.9541 17.4551C29.6133 17.4551 29.3359 17.1777 29.3359 16.8369ZM24.7256 16.8574C24.7256 17.1982 24.4482 17.4756 24.1074 17.4756C23.7666 17.4756 23.4893 17.1982 23.4893 16.8574C23.4893 16.5166 23.7666 16.2393 24.1074 16.2393C24.4482 16.2393 24.7256 16.5166 24.7256 16.8574ZM31.5742 33.7803C29.4717 34.9941 27.0234 35.3164 24.6787 34.6885C22.334 34.0605 20.374 32.5566 19.1611 30.4541C17.1445 26.9609 17.709 22.5166 20.457 19.6357C20.75 20.0098 21.0518 20.3623 21.3457 20.7051C21.4014 20.7705 21.457 20.835 21.5127 20.8994C19.3389 23.2842 18.9385 26.7988 20.5772 29.6357C21.9561 32.0244 24.4668 33.3603 27.0439 33.3603C28.3076 33.3603 29.5869 33.0391 30.7578 32.3633C34.3164 30.3086 35.54 25.7412 33.4854 22.1826C33.2188 21.7207 32.9053 21.291 32.5498 20.8984C32.6045 20.834 32.6602 20.7695 32.7168 20.7041C33.0107 20.3613 33.3125 20.0078 33.6064 19.6338C34.1035 20.1553 34.5381 20.7354 34.9014 21.3652C37.4063 25.7061 35.9141 31.2754 31.5742 33.7803ZM37.1895 27.3096L38.3193 27.5166L37.5791 30.2803L36.4824 29.8896C36.8281 29.0645 37.0664 28.1963 37.1895 27.3096ZM47.29 31.4014C47.1387 31.9678 46.7373 32.4687 46.2178 32.7412C45.7676 32.9775 45.2744 33.0205 44.8291 32.8623L38.6865 30.6748L39.4756 27.7285L45.8897 28.9062C46.3545 28.9912 46.7598 29.2754 47.0322 29.7051C47.3457 30.2012 47.4424 30.8359 47.29 31.4014ZM26.4443 4.08398V2.05078C26.4443 1.72754 26.707 1.46484 27.0303 1.46484C27.3535 1.46484 27.6162 1.72754 27.6162 2.05078V4.08398C27.6162 4.40723 27.3535 4.66992 27.0303 4.66992C26.707 4.66992 26.4443 4.40723 26.4443 4.08398ZM20.1523 4.05078C19.9902 3.77051 20.0869 3.41211 20.3672 3.25C20.6475 3.08789 21.0059 3.18457 21.168 3.46484L22.1846 5.22559C22.3467 5.50586 22.25 5.86426 21.9697 6.02637C21.877 6.08008 21.7764 6.10449 21.6777 6.10449C21.4756 6.10449 21.2783 5.99902 21.1699 5.81152L20.1523 4.05078ZM15.4883 8.12891C15.6504 7.84863 16.0078 7.75293 16.2891 7.91406L18.0498 8.93066C18.3301 9.09277 18.4258 9.45117 18.2647 9.73145C18.1563 9.91895 17.959 10.0244 17.7568 10.0244C17.6572 10.0244 17.5566 9.99902 17.4648 9.94629L15.7041 8.92969C15.4229 8.76758 15.3271 8.40918 15.4883 8.12891ZM13.7031 14.792C13.7031 14.4688 13.9658 14.2061 14.2891 14.2061H16.3223C16.6455 14.2061 16.9082 14.4688 16.9082 14.792C16.9082 15.1152 16.6455 15.3779 16.3223 15.3779H14.2891C13.9658 15.3779 13.7031 15.1162 13.7031 14.792ZM31.8779 5.22559L32.8945 3.46484C33.0566 3.18457 33.415 3.08887 33.6953 3.25C33.9756 3.41211 34.0713 3.77051 33.9102 4.05078L32.8926 5.81152C32.7842 5.99902 32.5869 6.10449 32.3848 6.10449C32.2852 6.10449 32.1846 6.0791 32.0928 6.02637C31.8115 5.86426 31.7158 5.50586 31.8779 5.22559ZM35.7969 9.73145C35.6348 9.45117 35.7314 9.09277 36.0117 8.93066L37.7725 7.91406C38.0527 7.75195 38.4111 7.84863 38.5732 8.12891C38.7354 8.40918 38.6387 8.76758 38.3584 8.92969L36.5977 9.94629C36.5059 10 36.4043 10.0244 36.3057 10.0244C36.1025 10.0244 35.9063 9.91895 35.7969 9.73145ZM37.7393 14.2061H39.7725C40.0957 14.2061 40.3584 14.4688 40.3584 14.792C40.3584 15.1152 40.0957 15.3779 39.7725 15.3779H37.7393C37.416 15.3779 37.1533 15.1152 37.1533 14.792C37.1533 14.4688 37.416 14.2061 37.7393 14.2061ZM35.2383 35.7383L28.165 39.4326C28.1201 39.3203 28.0664 39.21 28.0049 39.1035C27.6689 38.5225 27.1289 38.1064 26.4844 37.9336L15.8701 35.0898C15.6992 35.043 15.6992 35.043 14.833 35.3242C13.915 35.6221 12.2314 36.1689 11.251 36.4717V35.2871C11.251 34.9639 10.9883 34.7012 10.665 34.7012H5.14258C4.81934 34.7012 4.55664 34.9639 4.55664 35.2871V47.9492C4.55664 48.2725 4.81934 48.5352 5.14258 48.5352H10.665C10.9883 48.5352 11.251 48.2725 11.251 47.9492V46.7168L15.252 47.4902C15.5664 47.5508 15.8477 47.5791 16.1523 47.5791C16.1846 47.5791 16.2168 47.5791 16.249 47.5781L24.3398 47.4248H24.3564C24.7949 47.4248 25.2256 47.3096 25.6055 47.0898L37.7236 40.0928C38.3018 39.7588 38.7158 39.2178 38.8897 38.5693C39.0635 37.9209 38.9756 37.2451 38.6416 36.667C37.9688 35.501 36.4736 35.0928 35.2383 35.7383ZM10.0791 47.3633H5.72852V35.8721H10.0791V47.3633ZM37.7588 38.2676C37.666 38.6143 37.4453 38.9023 37.1387 39.0791L25.0205 46.0762C24.8154 46.1943 24.5811 46.2559 24.3438 46.2539C24.3379 46.2539 24.332 46.2539 24.3262 46.2539L16.2275 46.4072C15.9678 46.4121 15.7432 46.3926 15.4756 46.3408L11.252 45.5244V37.6953C12.1494 37.4268 14.085 36.7988 15.1953 36.4375C15.4082 36.3682 15.6025 36.3047 15.7305 36.2637L26.1816 39.0645C26.5244 39.1562 26.8115 39.3779 26.9912 39.6885C27.1699 39.999 27.2188 40.3584 27.127 40.7012C27.0352 41.0439 26.8135 41.3311 26.5029 41.5107C26.1924 41.6895 25.833 41.7383 25.4902 41.6465L18.3291 39.7275C18.0166 39.6436 17.6953 39.8291 17.6113 40.1416C17.5273 40.4541 17.7129 40.7754 18.0254 40.8594L25.1865 42.7783C25.4014 42.8359 25.6191 42.8643 25.8359 42.8643C26.2705 42.8643 26.7012 42.75 27.0889 42.5254C27.6699 42.1895 28.0859 41.6494 28.2588 41.0049C28.2881 40.8945 28.3096 40.7832 28.3242 40.6719L35.7822 36.7773C36.459 36.4238 37.2705 36.6338 37.6289 37.2549C37.8047 37.5615 37.8516 37.9209 37.7588 38.2676Z" fill="#553AF5"/>
</g>
<defs>
<filter id="filter0_d_5003_156" x="-2.4541" y="0" width="58" height="58" filterUnits="userSpaceOnUse" color-interpolation-filters="sRGB">
<feFlood flood-opacity="0" result="BackgroundImageFix"/>
<feColorMatrix in="SourceAlpha" type="matrix" values="0 0 0 0 0 0 0 0 0 0 0 0 0 0 0 0 0 0 127 0" result="hardAlpha"/>
<feOffset dy="4"/>
<feGaussianBlur stdDeviation="2"/>
<feComposite in2="hardAlpha" operator="out"/>
<feColorMatrix type="matrix" values="0 0 0 0 0 0 0 0 0 0 0 0 0 0 0 0 0 0 0.25 0"/>
<feBlend mode="normal" in2="BackgroundImageFix" result="effect1_dropShadow_5003_156"/>
<feBlend mode="normal" in="SourceGraphic" in2="effect1_dropShadow_5003_156" result="shape"/>
</filter>
</defs>
</svg>
