<svg width="51" height="50" viewBox="0 0 51 50" fill="none" xmlns="http://www.w3.org/2000/svg">
<g clip-path="url(#clip0_5003_200)">
<path d="M32.561 18.3716C28.9062 18.3716 25.9326 21.345 25.9326 25C25.9326 28.655 28.9062 31.6284 32.561 31.6284C36.2159 31.6284 39.1895 28.655 39.1895 25C39.1895 21.345 36.216 18.3716 32.561 18.3716ZM32.561 30.0626C29.7695 30.0626 27.4984 27.7915 27.4984 25C27.4984 22.2085 29.7695 19.9374 32.561 19.9374C35.3525 19.9374 37.6236 22.2085 37.6236 25C37.6237 27.7915 35.3526 30.0626 32.561 30.0626Z" fill="#553AF5"/>
<path d="M43.4176 22.5475H43.0741C42.8072 21.3919 42.3573 20.3042 41.7309 19.3003L41.9724 19.0588C42.6031 18.428 42.6031 17.4016 41.9724 16.7707L40.7914 15.5897C40.1606 14.9589 39.1341 14.9589 38.5033 15.5897L38.2618 15.8312C37.2578 15.2049 36.1702 14.755 35.0146 14.488V14.1445C35.0148 13.2521 34.2891 12.5264 33.3969 12.5264H31.7268C30.8346 12.5264 30.1088 13.2521 30.1088 14.1443V14.4878C28.9532 14.7547 27.8655 15.2046 26.8616 15.8311L26.6201 15.5896C25.9894 14.9587 24.9628 14.9587 24.332 15.5896L23.1511 16.7706C22.5203 17.4014 22.5203 18.4278 23.1511 19.0587L23.3926 19.3002C22.7662 20.3042 22.3163 21.3919 22.0493 22.5474H21.7059C20.8137 22.5474 20.0879 23.2731 20.0879 24.1653V25.8354C20.0879 26.7276 20.8137 27.4534 21.7059 27.4534H22.0493C22.3162 28.6089 22.7661 29.6967 23.3926 30.7005L23.151 30.9421C22.5203 31.5729 22.5203 32.5993 23.151 33.2302L24.3318 34.411C24.6375 34.7167 25.0437 34.8851 25.4759 34.8851C25.908 34.8851 26.3144 34.7168 26.6199 34.4111L26.8614 34.1696C27.8655 34.796 28.9532 35.246 30.1086 35.513V35.8564C30.1086 36.7486 30.8344 37.4744 31.7266 37.4744H33.3967C34.2889 37.4744 35.0146 36.7486 35.0146 35.8564V35.513C36.1701 35.2461 37.2577 34.7961 38.2618 34.1696L38.5033 34.4111C38.809 34.7168 39.2152 34.8852 39.6474 34.8852C40.0795 34.8852 40.4858 34.7169 40.7914 34.4112L41.9724 33.2303C42.603 32.5995 42.603 31.573 41.9724 30.9422L41.7309 30.7007C42.3572 29.6967 42.8072 28.6091 43.0741 27.4536H43.4176C44.3098 27.4536 45.0355 26.7278 45.0355 25.8356V24.1655C45.0355 23.2732 44.3098 22.5475 43.4176 22.5475ZM43.47 25.8353C43.47 25.8641 43.4467 25.8874 43.4179 25.8874H42.4326C42.0504 25.8874 41.7239 26.1635 41.6605 26.5404C41.4276 27.9254 40.8979 29.2059 40.0861 30.3461C39.8645 30.6575 39.9 31.0834 40.1704 31.3537L40.8657 32.049C40.886 32.0693 40.886 32.1025 40.8657 32.1229L39.6848 33.304C39.6811 33.3077 39.6695 33.3192 39.6479 33.3192C39.6264 33.3192 39.6148 33.3077 39.611 33.304L38.9157 32.6087C38.6456 32.3385 38.2194 32.3028 37.9081 32.5244C36.7677 33.3362 35.4873 33.8659 34.1024 34.0988C33.7255 34.1622 33.4494 34.4886 33.4494 34.8709V35.8562C33.4494 35.885 33.4261 35.9083 33.3973 35.9083H31.7269C31.698 35.9083 31.6747 35.885 31.6747 35.8562V34.8709C31.6747 34.4887 31.3986 34.1622 31.0217 34.0988C29.6367 33.8659 28.3563 33.3362 27.216 32.5244C27.0792 32.4271 26.9203 32.3793 26.7623 32.3793C26.5605 32.3793 26.36 32.457 26.2084 32.6086L25.513 33.304C25.5092 33.3078 25.4978 33.3192 25.4762 33.3192C25.4546 33.3192 25.4431 33.3077 25.4393 33.304L24.2584 32.1231C24.2381 32.1028 24.2381 32.0696 24.2584 32.0492L24.9537 31.3539C25.2239 31.0837 25.2596 30.6576 25.038 30.3463C24.2262 29.2061 23.6965 27.9256 23.4636 26.5406C23.4002 26.1637 23.0738 25.8876 22.6915 25.8876H21.7061C21.6772 25.8876 21.6539 25.8643 21.6539 25.8354V24.1653C21.6539 24.1365 21.6772 24.1132 21.7061 24.1132H22.6913C23.0735 24.1132 23.4 23.8371 23.4634 23.4602C23.6963 22.0751 24.226 20.7947 25.0378 19.6545C25.2595 19.3431 25.2239 18.9172 24.9535 18.6469L24.2582 17.9516C24.2379 17.9313 24.2379 17.8981 24.2582 17.8777L25.4392 16.6968C25.4595 16.6766 25.4926 16.6766 25.513 16.6968L26.2083 17.3921C26.4784 17.6623 26.9046 17.6979 27.2159 17.4764C28.3562 16.6646 29.6366 16.1349 31.0216 15.902C31.3985 15.8386 31.6746 15.5122 31.6746 15.1299V14.1444C31.6746 14.1156 31.6979 14.0923 31.7268 14.0923H33.3969C33.4257 14.0923 33.449 14.1156 33.449 14.1444V15.1297C33.449 15.5119 33.7251 15.8384 34.102 15.9018C35.4872 16.1347 36.7677 16.6644 37.9079 17.4762C38.2192 17.6979 38.6452 17.6623 38.9155 17.3919L39.6108 16.6966C39.6312 16.6764 39.6643 16.6764 39.6847 16.6966L40.8656 17.8775C40.8859 17.8979 40.8859 17.931 40.8656 17.9514L40.1703 18.6467C39.9001 18.9169 39.8645 19.343 40.086 19.6543C40.8979 20.7945 41.4275 22.075 41.6604 23.46C41.7238 23.8369 42.0502 24.113 42.4325 24.113H43.4178C43.4466 24.113 43.4699 24.1363 43.4699 24.1651V25.8353H43.47Z" fill="#553AF5"/>
<path d="M32.5615 7.51562H0.828809C0.396387 7.51562 0.0458984 7.86621 0.0458984 8.29853C0.0458984 8.73086 0.396387 9.08145 0.828809 9.08145H32.5615C41.3391 9.08145 48.4801 16.2225 48.4801 25C48.4801 33.7775 41.3392 40.9186 32.5615 40.9186C24.6953 40.9186 18.1275 35.2267 16.8632 27.6548L17.558 28.5835C17.817 28.9296 18.3076 29.0003 18.6539 28.7413C19 28.4823 19.0708 27.9916 18.8117 27.6454L16.4624 24.5055C16.2994 24.2878 16.0354 24.1706 15.7645 24.1948C15.4936 24.2195 15.2551 24.3829 15.1342 24.6266L13.3914 28.1396C13.1992 28.527 13.3575 28.9968 13.7448 29.189C13.8566 29.2444 13.9753 29.2707 14.0921 29.2707C14.3802 29.2707 14.6573 29.1111 14.794 28.8356L15.3022 27.8111C16.6479 36.1802 23.8856 42.4845 32.5613 42.4845C42.2024 42.4844 50.0459 34.6409 50.0459 25C50.0459 15.3591 42.2024 7.51562 32.5615 7.51562Z" fill="#553AF5"/>
<path d="M25.8805 10.856H19.1999C18.7676 10.856 18.417 11.2064 18.417 11.6389C18.417 12.0713 18.7675 12.4218 19.1999 12.4218H25.8805C26.3128 12.4218 26.6634 12.0713 26.6634 11.6389C26.6634 11.2064 26.3129 10.856 25.8805 10.856Z" fill="#553AF5"/>
<path d="M15.86 10.856H0.828809C0.396484 10.856 0.0458984 11.2064 0.0458984 11.6389C0.0458984 12.0713 0.396387 12.4218 0.828809 12.4218H15.8601C16.2924 12.4218 16.643 12.0713 16.643 11.6389C16.643 11.2064 16.2924 10.856 15.86 10.856Z" fill="#553AF5"/>
<path d="M20.0354 14.1963H15.8601C15.4277 14.1963 15.0771 14.5468 15.0771 14.9792C15.0771 15.4116 15.4276 15.7621 15.8601 15.7621H20.0354C20.4678 15.7621 20.8184 15.4116 20.8184 14.9792C20.8184 14.5468 20.4678 14.1963 20.0354 14.1963Z" fill="#553AF5"/>
<path d="M12.5198 14.1963H0.828809C0.396484 14.1963 0.0458984 14.5468 0.0458984 14.9792C0.0458984 15.4116 0.396387 15.7621 0.828809 15.7621H12.5198C12.9521 15.7621 13.3027 15.4116 13.3027 14.9792C13.3027 14.5468 12.9521 14.1963 12.5198 14.1963Z" fill="#553AF5"/>
<path d="M15.0246 17.5366H11.6843C11.252 17.5366 10.9014 17.8871 10.9014 18.3195C10.9014 18.752 11.2519 19.1024 11.6843 19.1024H15.0246C15.4569 19.1024 15.8075 18.752 15.8075 18.3195C15.8075 17.8871 15.457 17.5366 15.0246 17.5366Z" fill="#553AF5"/>
<path d="M8.34443 17.5366H0.828809C0.396484 17.5366 0.0458984 17.8871 0.0458984 18.3195C0.0458984 18.752 0.396387 19.1024 0.828809 19.1024H8.34443C8.77676 19.1024 9.12734 18.752 9.12734 18.3195C9.12734 17.8871 8.77676 17.5366 8.34443 17.5366Z" fill="#553AF5"/>
<path d="M10.8496 20.877H9.17952C8.74719 20.877 8.39661 21.2274 8.39661 21.6599C8.39661 22.0923 8.74709 22.4428 9.17952 22.4428H10.8496C11.282 22.4428 11.6325 22.0923 11.6325 21.6599C11.6325 21.2274 11.2821 20.877 10.8496 20.877Z" fill="#553AF5"/>
<path d="M5.83926 20.877H0.828809C0.396484 20.877 0.0458984 21.2274 0.0458984 21.6599C0.0458984 22.0923 0.396387 22.4428 0.828809 22.4428H5.83926C6.27158 22.4428 6.62217 22.0923 6.62217 21.6599C6.62217 21.2274 6.27168 20.877 5.83926 20.877Z" fill="#553AF5"/>
</g>
<defs>
<clipPath id="clip0_5003_200">
<rect width="50" height="50" fill="white" transform="translate(0.0458984)"/>
</clipPath>
</defs>
</svg>
