<svg width="51" height="50" viewBox="0 0 51 50" fill="none" xmlns="http://www.w3.org/2000/svg">
<path d="M22.4209 22.6562H23.9834V27.3438H22.4209V22.6562Z" fill="#553AF5"/>
<path d="M22.4209 42.1875C22.4207 42.3946 22.3383 42.5932 22.1918 42.7397C22.0454 42.8861 21.8468 42.9685 21.6396 42.9688H4.45215C4.24502 42.9685 4.04644 42.8861 3.89998 42.7397C3.75352 42.5932 3.67114 42.3946 3.6709 42.1875V7.8125C3.67114 7.60537 3.75352 7.4068 3.89998 7.26033C4.04644 7.11387 4.24502 7.03149 4.45215 7.03125H21.6396C21.8468 7.03149 22.0454 7.11387 22.1918 7.26033C22.3383 7.4068 22.4207 7.60537 22.4209 7.8125V14.8438H23.9834V7.8125C23.9827 7.19112 23.7355 6.59539 23.2961 6.156C22.8568 5.71662 22.261 5.46946 21.6396 5.46875H4.45215C3.83077 5.46946 3.23504 5.71662 2.79565 6.156C2.35627 6.59539 2.10911 7.19112 2.1084 7.8125V42.1875C2.10911 42.8089 2.35627 43.4046 2.79565 43.844C3.23504 44.2834 3.83077 44.5305 4.45215 44.5312H21.6396C22.261 44.5305 22.8568 44.2834 23.2961 43.844C23.7355 43.4046 23.9827 42.8089 23.9834 42.1875V35.1562H22.4209V42.1875Z" fill="#553AF5"/>
<path d="M20.0771 22.6562H21.6396V27.3438H20.0771V22.6562Z" fill="#553AF5"/>
<path d="M21.6396 37.5V35.1562H20.0771V36.7188H6.01465V13.2812H20.0771V14.8438H21.6396V12.5C21.6396 12.2928 21.5573 12.0941 21.4108 11.9476C21.2643 11.8011 21.0656 11.7188 20.8584 11.7188H5.2334C5.0262 11.7188 4.82749 11.8011 4.68098 11.9476C4.53447 12.0941 4.45216 12.2928 4.45215 12.5V37.5C4.45216 37.7072 4.53447 37.9059 4.68098 38.0524C4.82749 38.1989 5.0262 38.2812 5.2334 38.2812H20.8584C21.0656 38.2812 21.2643 38.1989 21.4108 38.0524C21.5573 37.9059 21.6396 37.7072 21.6396 37.5Z" fill="#553AF5"/>
<path d="M11.4834 8.59375H16.1709V10.1562H11.4834V8.59375Z" fill="#553AF5"/>
<path d="M9.9209 10.1562C10.3524 10.1562 10.7021 9.80647 10.7021 9.375C10.7021 8.94353 10.3524 8.59375 9.9209 8.59375C9.48943 8.59375 9.13965 8.94353 9.13965 9.375C9.13965 9.80647 9.48943 10.1562 9.9209 10.1562Z" fill="#553AF5"/>
<path d="M46.6396 5.46875H29.4521C28.8308 5.46946 28.235 5.71662 27.7957 6.156C27.3563 6.59539 27.1091 7.19112 27.1084 7.8125V14.8438H28.6709V10.9375H29.4521V14.8438H31.0146V9.375H32.676C32.8501 10.0454 33.2416 10.6391 33.7892 11.0632C34.3368 11.4873 35.0095 11.7179 35.7021 11.7188H40.3896C41.0823 11.7179 41.755 11.4873 42.3026 11.0632C42.8502 10.6391 43.2417 10.0454 43.4158 9.375H45.0771V40.625H31.0146V35.1562H29.4521V39.0625H28.6709V35.1562H27.1084V42.1875C27.1091 42.8089 27.3563 43.4046 27.7957 43.844C28.235 44.2834 28.8308 44.5305 29.4521 44.5312H46.6396C47.261 44.5305 47.8568 44.2834 48.2961 43.844C48.7355 43.4046 48.9827 42.8089 48.9834 42.1875V7.8125C48.9827 7.19112 48.7355 6.59539 48.2961 6.156C47.8568 5.71662 47.261 5.46946 46.6396 5.46875ZM42.7334 7.8125C42.5262 7.81251 42.3275 7.89482 42.181 8.04133C42.0345 8.18784 41.9522 8.38655 41.9521 8.59375C41.9517 9.00801 41.7869 9.40516 41.494 9.69808C41.2011 9.991 40.8039 10.1558 40.3896 10.1562H35.7021C35.2879 10.1558 34.8907 9.991 34.5978 9.69808C34.3049 9.40516 34.1401 9.00801 34.1396 8.59375C34.1396 8.38655 34.0573 8.18784 33.9108 8.04133C33.7643 7.89482 33.5656 7.81251 33.3584 7.8125H30.2334C30.0262 7.81251 29.8275 7.89482 29.681 8.04133C29.5345 8.18784 29.4522 8.38655 29.4521 8.59375V9.375H28.6709V7.8125C28.6711 7.60537 28.7535 7.4068 28.9 7.26033C29.0464 7.11387 29.245 7.03149 29.4521 7.03125H46.6396C46.8468 7.03149 47.0454 7.11387 47.1918 7.26033C47.3383 7.4068 47.4207 7.60537 47.4209 7.8125V9.375H46.6396V8.59375C46.6396 8.38655 46.5573 8.18784 46.4108 8.04133C46.2643 7.89482 46.0656 7.81251 45.8584 7.8125H42.7334ZM46.6396 10.9375H47.4209V39.0625H46.6396V10.9375ZM46.6396 42.9688H29.4521C29.245 42.9685 29.0464 42.8861 28.9 42.7397C28.7535 42.5932 28.6711 42.3946 28.6709 42.1875V40.625H29.4521V41.4062C29.4522 41.6134 29.5345 41.8122 29.681 41.9587C29.8275 42.1052 30.0262 42.1875 30.2334 42.1875H45.8584C46.0656 42.1875 46.2643 42.1052 46.4108 41.9587C46.5573 41.8122 46.6396 41.6134 46.6396 41.4062V40.625H47.4209V42.1875C47.4207 42.3946 47.3383 42.5932 47.1918 42.7397C47.0454 42.8861 46.8468 42.9685 46.6396 42.9688Z" fill="#553AF5"/>
<path d="M27.1084 22.6562H28.6709V27.3438H27.1084V22.6562Z" fill="#553AF5"/>
<path d="M29.4521 22.6562H31.0146V27.3438H29.4521V22.6562Z" fill="#553AF5"/>
<path d="M37.2646 7.8125H38.8271V9.375H37.2646V7.8125Z" fill="#553AF5"/>
<path d="M40.3896 9.375C40.8211 9.375 41.1709 9.02522 41.1709 8.59375C41.1709 8.16228 40.8211 7.8125 40.3896 7.8125C39.9582 7.8125 39.6084 8.16228 39.6084 8.59375C39.6084 9.02522 39.9582 9.375 40.3896 9.375Z" fill="#553AF5"/>
<path d="M16.9521 17.9688V17.5781C16.9513 16.8532 16.663 16.1581 16.1504 15.6455C15.6378 15.1329 14.9427 14.8446 14.2178 14.8438H13.8271V14.0625H12.2646V14.8438H11.874C11.1488 14.8438 10.4533 15.1318 9.94053 15.6446C9.42773 16.1574 9.13965 16.8529 9.13965 17.5781C9.13965 18.3033 9.42773 18.9988 9.94053 19.5116C10.4533 20.0244 11.1488 20.3125 11.874 20.3125H14.2178C14.5286 20.3125 14.8266 20.436 15.0464 20.6557C15.2662 20.8755 15.3896 21.1736 15.3896 21.4844C15.3896 21.7952 15.2662 22.0932 15.0464 22.313C14.8266 22.5328 14.5286 22.6562 14.2178 22.6562H11.874C11.5633 22.6559 11.2655 22.5323 11.0458 22.3126C10.8261 22.0929 10.7025 21.7951 10.7021 21.4844V21.0938H9.13965V21.4844C9.14046 22.2093 9.42881 22.9044 9.94143 23.417C10.454 23.9296 11.1491 24.2179 11.874 24.2188H12.2646V25H13.8271V24.2188H14.2178C14.943 24.2188 15.6385 23.9307 16.1513 23.4179C16.6641 22.9051 16.9521 22.2096 16.9521 21.4844C16.9521 20.7592 16.6641 20.0637 16.1513 19.5509C15.6385 19.0381 14.943 18.75 14.2178 18.75H11.874C11.5632 18.75 11.2652 18.6265 11.0454 18.4068C10.8256 18.187 10.7021 17.8889 10.7021 17.5781C10.7021 17.2673 10.8256 16.9693 11.0454 16.7495C11.2652 16.5297 11.5632 16.4062 11.874 16.4062H14.2178C14.5285 16.4066 14.8263 16.5302 15.046 16.7499C15.2657 16.9696 15.3893 17.2674 15.3896 17.5781V17.9688H16.9521Z" fill="#553AF5"/>
<path d="M37.2646 27.3438V28.125H36.874C36.1488 28.125 35.4533 28.4131 34.9405 28.9259C34.4277 29.4387 34.1396 30.1342 34.1396 30.8594C34.1396 31.5846 34.4277 32.2801 34.9405 32.7929C35.4533 33.3057 36.1488 33.5938 36.874 33.5938H39.2178C39.5286 33.5938 39.8266 33.7172 40.0464 33.937C40.2662 34.1568 40.3896 34.4548 40.3896 34.7656C40.3896 35.0764 40.2662 35.3745 40.0464 35.5943C39.8266 35.814 39.5286 35.9375 39.2178 35.9375H36.874C36.5633 35.9372 36.2655 35.8136 36.0458 35.5939C35.8261 35.3742 35.7025 35.0763 35.7021 34.7656V34.375H34.1396V34.7656C34.1405 35.4906 34.4288 36.1856 34.9414 36.6982C35.454 37.2108 36.1491 37.4992 36.874 37.5H37.2646V38.2812H38.8271V37.5H39.2178C39.943 37.5 40.6385 37.2119 41.1513 36.6991C41.6641 36.1863 41.9521 35.4908 41.9521 34.7656C41.9521 34.0404 41.6641 33.3449 41.1513 32.8321C40.6385 32.3193 39.943 32.0312 39.2178 32.0312H36.874C36.5632 32.0312 36.2652 31.9078 36.0454 31.688C35.8256 31.4682 35.7021 31.1702 35.7021 30.8594C35.7021 30.5486 35.8256 30.2505 36.0454 30.0307C36.2652 29.811 36.5632 29.6875 36.874 29.6875H39.2178C39.5285 29.6878 39.8263 29.8114 40.046 30.0311C40.2657 30.2508 40.3893 30.5487 40.3896 30.8594V31.25H41.9521V30.8594C41.9513 30.1344 41.663 29.4394 41.1504 28.9268C40.6378 28.4142 39.9427 28.1258 39.2178 28.125H38.8271V27.3438H37.2646Z" fill="#553AF5"/>
<path d="M13.0459 41.4062C13.4774 41.4062 13.8271 41.0565 13.8271 40.625C13.8271 40.1935 13.4774 39.8438 13.0459 39.8438C12.6144 39.8438 12.2646 40.1935 12.2646 40.625C12.2646 41.0565 12.6144 41.4062 13.0459 41.4062Z" fill="#553AF5"/>
<path d="M17.7334 30.4687H33.3584V28.9062H18.5147V27.3437C18.5147 27.1892 18.4688 27.0382 18.383 26.9097C18.2971 26.7812 18.1751 26.6811 18.0324 26.622C17.8896 26.5628 17.7325 26.5474 17.581 26.5775C17.4294 26.6076 17.2902 26.682 17.181 26.7913L13.2747 30.6975C13.1282 30.844 13.0459 31.0428 13.0459 31.25C13.0459 31.4572 13.1282 31.6559 13.2747 31.8024L17.181 35.7087C17.2902 35.8179 17.4294 35.8923 17.581 35.9225C17.7325 35.9526 17.8896 35.9371 18.0324 35.878C18.1751 35.8189 18.2971 35.7187 18.383 35.5903C18.4688 35.4618 18.5147 35.3107 18.5147 35.1562V33.5937H33.3584V32.0312H17.7334C17.5262 32.0312 17.3275 32.1136 17.181 32.2601C17.0345 32.4066 16.9522 32.6053 16.9522 32.8125V33.2701L14.932 31.25L16.9522 29.2298V29.6875C16.9522 29.8947 17.0345 30.0934 17.181 30.2399C17.3275 30.3864 17.5262 30.4687 17.7334 30.4687Z" fill="#553AF5"/>
<path d="M33.9109 14.2913C33.8016 14.182 33.6624 14.1076 33.5108 14.0775C33.3593 14.0474 33.2022 14.0628 33.0595 14.122C32.9167 14.1811 32.7947 14.2812 32.7088 14.4097C32.623 14.5382 32.5772 14.6892 32.5771 14.8437V16.4062H17.7334V17.9687H33.3584C33.5656 17.9687 33.7643 17.8864 33.9108 17.7399C34.0573 17.5934 34.1396 17.3947 34.1396 17.1875V16.7298L36.1598 18.75L34.1396 20.7702V20.3125C34.1396 20.1053 34.0573 19.9066 33.9108 19.7601C33.7643 19.6136 33.5656 19.5312 33.3584 19.5312H17.7334V21.0937H32.5771V22.6562C32.5772 22.8107 32.623 22.9618 32.7088 23.0903C32.7947 23.2187 32.9167 23.3189 33.0594 23.378C33.2022 23.4371 33.3593 23.4526 33.5108 23.4225C33.6624 23.3923 33.8016 23.3179 33.9109 23.2087L37.8171 19.3024C37.9636 19.1559 38.0459 18.9572 38.0459 18.75C38.0459 18.5428 37.9636 18.3441 37.8171 18.1975L33.9109 14.2913Z" fill="#553AF5"/>
</svg>
